<?xml version="1.0" standalone="no"?>
<!DOCTYPE svg PUBLIC "-//W3C//DTD SVG 20010904//EN"
 "http://www.w3.org/TR/2001/REC-SVG-20010904/DTD/svg10.dtd">
<svg version="1.0" xmlns="http://www.w3.org/2000/svg"
 width="512.000000pt" height="512.000000pt" viewBox="0 0 512.000000 512.000000"
 preserveAspectRatio="xMidYMid meet">
<metadata>
Created by potrace 1.11, written by Peter Selinger 2001-2013
</metadata>
<g transform="translate(0.000000,512.000000) scale(0.100000,-0.100000)"
fill="#000000" stroke="none">
<path d="M3060 4704 c-265 -45 -517 -210 -680 -444 -13 -19 -27 -37 -30 -40
-18 -17 -93 -166 -126 -253 -96 -247 -126 -574 -73 -804 6 -26 13 -58 15 -71
9 -48 53 -170 94 -262 96 -216 129 -348 123 -489 -8 -183 -100 -376 -265 -555
l-36 -39 -58 23 c-169 69 -311 251 -379 487 -33 111 -39 167 -40 323 0 215 31
365 116 572 l28 68 -41 -21 c-202 -103 -422 -291 -580 -495 -70 -91 -208 -328
-208 -358 0 -2 -8 -21 -17 -42 -9 -22 -18 -43 -19 -49 -2 -5 -15 -48 -29 -95
-84 -280 -92 -658 -20 -995 26 -127 90 -306 146 -415 62 -120 168 -258 251
-326 l36 -31 1279 0 1278 0 56 56 c154 155 288 398 325 591 2 14 9 50 16 80
22 110 14 353 -17 495 -58 270 -212 576 -407 810 -28 33 -121 130 -208 215
-138 136 -181 182 -274 290 -40 46 -144 194 -193 275 -112 182 -210 425 -249
615 -18 88 -25 287 -12 371 14 99 60 219 112 296 47 69 138 156 213 203 l48
31 -50 -2 c-28 -1 -84 -8 -125 -15z"/>
<path d="M3767 4335 c-156 -84 -261 -252 -301 -481 -14 -77 -15 -298 -3 -339
4 -11 8 -31 11 -45 2 -14 12 -59 22 -100 19 -80 23 -270 6 -325 -10 -37 -8
-39 203 -250 88 -88 189 -194 225 -235 36 -41 67 -77 70 -80 3 -3 10 -12 15
-21 6 -9 32 -46 58 -83 27 -36 74 -110 106 -165 l57 -99 22 62 c28 80 60 215
68 291 7 67 7 271 0 325 -12 98 -69 322 -87 345 -4 6 -7 12 -7 15 -1 12 -48
134 -64 164 -178 337 -278 560 -304 677 -25 114 -23 271 5 342 6 16 11 30 11
33 0 13 -64 -4 -113 -31z"/>
</g>
</svg>
